<svg xmlns="http://www.w3.org/2000/svg" width="400" height="64.122"><g fill-rule="evenodd"><path fill="#5363fc" d="M324.5.25c0 .185-.207.255-.792.268-1.442.032-1.448.034-1.54.562-.069.394-.173.498-.502.5-.345.003-.425.094-.467.535-.039.4-.142.544-.417.583-.228.033-.357.161-.342.342.012.159-.044.249-.125.198-.085-.052-.148 1.282-.148 3.091 0 3.286.136 4.004.759 4.004.135 0 .241.244.272.625.045.543.112.632.51.678.304.035.459.15.459.342 0 .557.36.689 1.884.689 1.34 0 1.532.04 1.979.416.273.23.659.433.858.452.199.02-1.776.087-4.388.151-5.688.137-5.305.105-5.338.45-.176 1.803-.146 9.438.038 9.555.119.075 1.06.138 2.092.14l1.875.002.019 13.042c.011 7.173.012 13.095.003 13.16-.039.261 1.326.312 7.061.265l6-.05.042-18.129.043-18.129-.428-.163c-.236-.089-1.83-.167-3.543-.173-2.135-.007-2.99-.06-2.72-.168.281-.113.37-.252.309-.484-.047-.179-.037-.32.022-.312.06.008.795.005 1.635-.006l1.526-.019.932-.882c.513-.484.932-.972.932-1.083 0-.111.075-.202.167-.202.091 0 .166-.286.166-.635 0-.488.116-.747.496-1.111l.496-.475-.038-1.989c-.036-1.934-.049-1.999-.482-2.348-.334-.27-.466-.554-.529-1.146-.104-.968-.226-1.181-.617-1.079-.302.079-.527-.209-.56-.717-.008-.138-.147-.24-.307-.227-.161.013-.292-.047-.292-.132 0-.086-.094-.143-.208-.129C330.605.602 330 .479 330 .25c0-.212-.417-.25-2.75-.25s-2.75.038-2.75.25M95.546 2.67l-.371.15v5.923l.001 5.924h12.157v17.557c0 16.962.011 17.567.313 17.841.342.309 13.492.353 13.799.046.076-.076.158-8.082.182-17.792l.044-17.652h12.169l-.011-5.834c-.007-3.818-.07-5.833-.18-5.833-.093 0-.128-.066-.078-.146.229-.372-37.111-.552-38.025-.184m112.912-.06c-.277.077-.29 1.317-.25 23.861l.042 23.779 6.167.046c3.391.026 6.335.006 6.541-.044l.375-.092V34h.487c.403 0 .505.084.594.49.083.374.214.502.555.542.413.047.454.122.531.968.077.852.116.92.542.969.382.044.458.133.458.534 0 .66.311 1.286.687 1.384.221.058.313.233.313.597 0 .284.056.508.125.498.528-.076.875.257.875.839 0 .744.342 1.275.726 1.128.206-.079.279-.003.295.306.011.227.03.505.042.62.011.115.227.232.479.261.447.051.573.361.471 1.154-.049.377.327.877.66.877.305 0 .41.245.339.791-.014.115.052.209.147.209.096 0 .174.11.174.244s.142.32.314.412c.173.092.363.428.423.745.088.471.191.587.561.63.267.031.434.142.407.271-.025.12.034.512.13.87.269.997.441 1.017 8.249.96l6.833-.049.05-.862c.072-1.241-.146-1.939-.643-2.059-.304-.073-.394-.191-.354-.468.04-.283-.063-.411-.436-.541-.425-.148-.509-.286-.637-1.037-.1-.59-.226-.868-.397-.871-.417-.007-.618-.214-.724-.742-.08-.401-.187-.503-.521-.503-.414 0-.551-.416-.431-1.304.044-.324-.318-.696-.677-.696-.232 0-.313-.122-.313-.464 0-.382-.079-.47-.445-.5-.576-.048-.564-.029-.582-.928-.015-.756-.302-1.234-.621-1.037-.208.129-.344-.095-.389-.64-.029-.352-.121-.431-.5-.431-.437 0-.463-.042-.463-.737 0-.993-.129-1.263-.601-1.263-.331 0-.399-.085-.399-.491 0-.368-.125-.564-.5-.786-.293-.173-.501-.436-.503-.634-.004-.673-.211-1.095-.582-1.188-.251-.063-.412-.26-.476-.582-.054-.267-.199-.486-.324-.486-.309 0-.591-.615-.65-1.417-.043-.593-.01-.661.301-.619.42.058.81-.359.672-.718-.1-.26.504-.623.772-.465.07.041.17-.141.222-.403.054-.268.254-.548.457-.637a.553.553 0 0 0 .347-.533c-.007-.206.049-.375.125-.375s.139-.225.139-.5c0-.476.241-.62.875-.519.068.01.125-.201.125-.47 0-.409.074-.497.458-.541.382-.044.467-.143.511-.595.039-.409.132-.541.379-.541.366 0 .652-.584.652-1.333 0-.398.077-.487.458-.531.357-.041.47-.152.51-.5.04-.342.168-.473.546-.556.271-.06.483-.196.47-.303-.061-.501.047-.738.413-.905.289-.132.452-.41.6-1.026.173-.724.26-.846.599-.846.562 0 .809-2.316.301-2.825-.125-.125-11.684-.218-12.328-.099-.283.052-.526.206-.542.343l-.055.49c-.015.133-.084.208-.153.165-.315-.194-.986.263-.986.672 0 .34-.082.42-.427.42-.241 0-.381.072-.323.167.057.092.024.167-.073.167-.098 0-.177.138-.177.306 0 .169-.185.391-.41.494-.328.149-.432.353-.52 1.017-.098.74-.159.837-.549.882-.357.041-.447.148-.489.583-.038.386-.119.507-.294.44-.313-.12-.778.265-.668.553.084.22-.041.377-.614.772-.161.111-.35.539-.42.949-.111.648-.182.748-.54.75-.341.003-.422.096-.464.535-.042.438-.131.541-.5.584-.343.039-.453.147-.469.458-.011.223-.171.528-.354.676-.384.311-.876 1.196-.876 1.576 0 .223-.19.299-.606.244-.059-.008-.17.086-.247.208-.078.123-.144-5.237-.147-11.944-.003-7.364-.067-12.265-.163-12.417-.155-.246-11.887-.452-12.712-.223m76.709.013c-.229.042-.472.163-.54.269-.283.441-.142 47.233.143 47.343.342.131 30.061.124 30.718-.008l.495-.099.011-5.355.01-5.356-.775-.625-.775-.625H298.667l-.02-16.875c-.011-9.282-.007-16.974.01-17.094a1.42 1.42 0 0 0-.973-1.506c-.626-.188-11.555-.248-12.517-.069m93.088 2.36c-.055.174-.088.38-.074.458.014.078.016 1.953.005 4.165l-.019 4.024-2.405.062c-1.323.034-2.466.123-2.542.199-.075.075-.137 2.324-.137 4.998v4.861l2.542.046 2.542.046.002 9.371c.003 9.211.044 9.933.55 9.738.333-.127.448.208.448 1.313 0 .645.064.903.224.903.371 0 .801.605.849 1.195.069.83.076.847.317.755.338-.13.684.154.689.565.003.261.124.385.417.43.5.078.749.304.752.686.001.182.153.3.418.325 1.101.106 1.483.253 1.533.588.057.387.245.443 1.884.564.872.065 1.245.17 1.475.417.17.182.418.289.551.238.133-.051.2-.027.15.054-.247.401 10.288.528 11.136.135.508-.236.555-.397.146-.504-.277-.073-.277-.077 0-.096.271-.018.292-.379.292-5.083v-5.064l-.375-.1c-.206-.056-1.586-.102-3.066-.103-2.236-.002-2.706-.045-2.786-.252a.41.41 0 0 0-.351-.25c-.14 0-.237-.094-.214-.209.029-.142-.254-.224-.896-.257l-.938-.05-.11-.832c-.088-.666-.193-.87-.521-1.019l-.41-.187v-13.28l4.459-.002c2.452-.001 4.627-.047 4.833-.103l.375-.1v-4.75c0-4.669-.006-4.749-.334-4.663-.183.048-.291.019-.24-.064.225-.363-1.01-.484-4.937-.484h-4.156l-.019-3.959c-.011-2.177-.008-4.051.006-4.164.015-.114-.054-.358-.152-.542-.273-.509-11.751-.528-11.913-.019m-194.732 7.826c-.125.083-.364.114-.532.07-.183-.048-.472.086-.721.336-.375.374-.583.423-2.134.499-2.013.099-2.364.202-2.244.659.047.18.053.294.014.255-.3-.299-2.16.336-2.209.755-.043.37-.136.45-.522.45-.315 0-.558.135-.737.408-.147.225-.542.538-.876.697-.335.159-.645.425-.688.592-.044.167-.146.303-.227.303-.081 0-.147.225-.147.5 0 .324-.088.508-.25.521-.752.063-.695-.036-.731 1.271-.015.575-.078.708-.332.708-.611 0-.664.332-.681 4.272-.016 4.042.079 4.728.657 4.728.278 0 .337.11.339.625.004.95.158 1.338.576 1.442.257.065.412.261.481.606.057.28.197.497.313.482.465-.061.591.033.686.512.084.42.179.5.593.5s.502.073.546.458c.055.477.083.488 1.334.524.54.016.62.073.666.476.051.439.098.461 1.08.508.888.042 1.066.107 1.305.471.167.257.373.385.522.328.139-.053.202-.022.145.07-.066.106.849.165 2.563.165 2.446 0 2.674.025 2.763.308.145.455.703.641 2.008.668 2.117.044 2.834.182 3.009.581a.773.773 0 0 0 .533.413c.206.029.375.127.375.216 0 .09.198.347.441.572.43.398.432.409.075.409-.258 0-.419.149-.541.5-.118.338-.29.504-.533.513-1.293.049-1.599.197-1.606.778-.006.465-3.087.271-3.306-.208-.104-.229-.322-.428-.485-.442a4.335 4.335 0 0 1-.462-.064c-.091-.021-.56-.048-1.041-.058-.857-.019-.875-.03-.875-.519 0-.443-.057-.5-.492-.5-.482 0-.493-.02-.542-.959l-.05-.958-6.024-.044-6.025-.043-.024 2.266c-.017 1.522.032 2.231.147 2.16.106-.065.131.002.065.175-.076.196-.037.258.125.204.397-.133.63.283.684 1.218.049.84.082.901.511.95.362.042.458.139.458.467 0 .609.461 1.397.817 1.397.206 0 .34.159.404.478.101.509.45.682 1.376.686.424.002.511.068.5.378-.01.266.142.447.526.625.296.137.582.379.634.536.117.35 1.053.628 2.118.629.676.001.792.049.792.329 0 .532.464.641 2.82.662 2.174.019 2.244.031 2.632.449.303.327.517.413.897.357.274-.04.537-.011.585.065.116.189 2.689.178 2.806-.012.051-.083.244-.111.427-.063a.736.736 0 0 0 .584-.12c.301-.25.333-.566.04-.401-.145.082-.157.062-.039-.068.108-.117 1.046-.193 2.568-.206 2.434-.022 3.061-.145 3.517-.693.139-.168.552-.341.916-.384.365-.043.813-.097.997-.121.183-.023.343-.155.355-.293l.042-.468c.011-.12.096-.171.189-.113.285.176 1.327-.258 1.593-.664.137-.21.463-.425.724-.477.317-.063.506-.225.573-.491.054-.218.288-.482.52-.588.231-.105.43-.306.441-.445.012-.14.04-.329.063-.42a4.14 4.14 0 0 0 .062-.573c.016-.312.127-.417.479-.458.444-.051.46-.088.508-1.178.037-.841.109-1.125.287-1.125.571 0 .76-.91.738-3.543-.023-2.654-.123-3.123-.664-3.123-.283 0-.33-.124-.348-.917-.011-.504-.037-.973-.056-1.042-.124-.439-.328-.708-.605-.796-.23-.073-.318-.257-.318-.662 0-.565-.434-.913-.832-.668-.092.058-.177-.031-.187-.197-.046-.721-.077-.803-.314-.824a64.289 64.289 0 0 1-.459-.042c-.114-.01-.208-.154-.208-.319 0-.451-.337-.7-.945-.7-.412 0-.635-.122-.915-.5-.305-.413-.488-.5-1.046-.5-.563-.001-.733-.083-1.004-.489-.18-.268-.367-.484-.417-.48-1.63.146-2.821-.057-2.87-.489l-.053-.459-3.583-.083c-3.555-.083-3.583-.086-3.534-.444.066-.48-.029-.52-1.412-.584-.654-.03-1.154-.112-1.111-.182.043-.069-.039-.171-.183-.226-.549-.21-.348-1.731.229-1.731.72 0 1.301-.268 1.424-.657.1-.315.24-.343 1.759-.343 1.405 0 1.636.038 1.554.252-.122.319.24.769.591.735 1.068-.101 1.349.005 1.349.513 0 .445.056.5.5.5.464 0 .502.046.518.625.041 1.448-.693 1.292 6.066 1.292h6l.031-1.82c.032-1.89-.187-2.763-.695-2.763-.178 0-.25-.284-.287-1.125-.048-1.09-.064-1.127-.508-1.178-.362-.042-.458-.139-.458-.467 0-.498-.439-1.397-.683-1.397-.28 0-.6-.4-.518-.646.092-.277-.255-.515-.757-.518-.207-.002-.375-.106-.375-.233 0-.308-.665-.729-1.259-.798-.351-.04-.504-.166-.575-.472-.084-.36-.225-.436-1.043-.559-.693-.105-.972-.226-1.043-.45-.152-.479-.942-.632-3.349-.65-.854-.006-1.086-.074-1.428-.416-.225-.225-.554-.418-.731-.429-1.972-.125-5.538-.137-5.716-.02m76.334 0c-.125.083-.365.114-.533.07-.183-.048-.471.086-.721.336-.374.374-.583.423-2.134.499-2.013.099-2.363.202-2.244.659.047.18.054.294.014.255-.299-.299-2.159.336-2.208.755-.044.37-.136.45-.523.45-.314 0-.558.135-.737.408-.147.225-.528.532-.846.683-.319.151-.625.418-.68.592-.055.175-.171.317-.256.317-.086 0-.156.225-.156.5 0 .324-.088.508-.25.521-.752.063-.695-.036-.73 1.271-.016.575-.079.708-.333.708a.721.721 0 0 0-.493.218c-.211.254-.259 7.949-.049 7.949.073 0 .126.169.119.375-.01.267.094.39.361.428.311.044.376.159.378.667.003.938.159 1.326.575 1.43.257.065.413.261.482.606.056.28.197.497.313.482.464-.061.59.033.686.512.084.42.178.5.593.5.414 0 .501.073.546.458.054.477.082.488 1.333.524.541.016.62.073.667.476.05.436.102.461 1.032.509.827.043 1.058.128 1.472.542l.491.491h2.642c2.424 0 2.651.025 2.741.308.144.455.702.641 2.008.668 2.116.044 2.833.182 3.008.581a.773.773 0 0 0 .533.413c.207.029.375.127.375.216 0 .09.199.347.441.572.43.398.432.409.075.409-.257 0-.418.149-.541.5-.157.451-.244.5-.896.5-.737 0-1.245.31-1.245.762 0 .492-3.073.326-3.303-.179-.105-.229-.323-.428-.485-.442a4.26 4.26 0 0 1-.462-.064c-.092-.021-.561-.048-1.042-.058-.857-.019-.875-.03-.875-.519 0-.443-.056-.5-.492-.5-.481 0-.492-.02-.541-.959l-.05-.958-6.042-.047-6.042-.047v2.265c0 1.45.06 2.229.165 2.164.097-.061.121.013.057.179-.075.196-.037.258.125.204.398-.133.632.285.686 1.219.047.839.08.9.509.949.363.042.458.139.458.467 0 .609.461 1.397.817 1.397.206 0 .34.159.404.478.102.509.45.682 1.376.686.424.002.511.068.5.378-.01.266.142.447.526.625.297.137.582.379.635.536.116.35 1.052.628 2.117.629.676.001.792.049.792.329 0 .532.465.641 2.821.662 2.174.019 2.243.031 2.631.449.303.327.517.413.897.357.274-.04.538-.011.585.065.116.189 2.689.178 2.806-.012.052-.083.244-.111.428-.063a.735.735 0 0 0 .583-.12c.276-.229.346-.578.082-.416-.091.057-.166.024-.166-.073 0-.151 3.801-.302 4.645-.185.363.051 1.248-.349 1.525-.689.141-.172.549-.346.917-.389.364-.043.813-.097.996-.121.183-.023.343-.155.356-.293l.041-.468c.011-.12.096-.171.19-.113.291.18 1.329-.262 1.605-.684.159-.242.424-.401.669-.401.3 0 .451-.129.578-.494.095-.271.32-.54.501-.597.375-.119.643-.707.643-1.409 0-.398.077-.487.459-.531.443-.051.46-.088.507-1.178.037-.841.11-1.125.288-1.125.57 0 .759-.91.737-3.543-.023-2.654-.122-3.123-.663-3.123-.283 0-.33-.124-.348-.917-.012-.504-.037-.973-.057-1.042-.123-.439-.328-.708-.605-.796-.23-.073-.318-.257-.318-.662 0-.565-.434-.913-.832-.668-.092.058-.176-.031-.187-.197-.046-.721-.077-.803-.314-.824a58.871 58.871 0 0 1-.458-.042c-.115-.01-.209-.154-.209-.319 0-.437-.332-.7-.882-.7-.479 0-1.198-.431-1.251-.75-.015-.092-.326-.19-.69-.218-.478-.036-.769-.177-1.045-.505-.469-.557-.357-.527-1.954-.527-1.319 0-1.322-.001-1.375-.458l-.053-.459-3.541-.045-3.542-.045v-.403c0-.53-.054-.553-1.446-.618-.653-.03-1.153-.112-1.111-.182.043-.069-.039-.171-.182-.226-.55-.21-.349-1.731.228-1.731.72 0 1.301-.268 1.425-.657.1-.315.24-.343 1.759-.343 1.404 0 1.635.038 1.553.252-.122.319.24.769.591.735 1.043-.099 1.35.009 1.35.477 0 .382.078.47.445.5.57.048.536-.013.591 1.045l.047.908h12l.027-1.829c.027-1.896-.188-2.754-.69-2.754-.178 0-.251-.284-.288-1.125-.047-1.09-.064-1.127-.507-1.178-.363-.042-.459-.139-.459-.467 0-.498-.439-1.397-.683-1.397-.279 0-.6-.4-.518-.646.092-.277-.254-.515-.757-.518-.207-.002-.375-.106-.375-.233 0-.308-.664-.729-1.258-.798-.351-.04-.505-.166-.576-.472-.084-.36-.225-.436-1.043-.559-.692-.105-.971-.226-1.043-.45-.152-.479-.942-.632-3.349-.65-.854-.006-1.085-.074-1.428-.416-.224-.225-.553-.418-.731-.429-1.972-.125-5.538-.137-5.715-.02m92.147.024c-.319.077-.703.293-.855.48-.229.284-.48.343-1.504.358-2.051.028-2.648.152-2.849.594-.147.322-.349.41-1.156.501-.574.065-.966.188-.949.297a.66.66 0 0 1-.669.77c-.294 0-.498.123-.607.365-.091.2-.427.506-.748.68-.754.408-1.159.926-1.163 1.486-.003.363-.09.457-.462.5-.44.051-.461.096-.508 1.099-.03.615-.116 1.006-.21.948-.752-.465-.824-.098-.824 4.195 0 4.218.072 4.727.673 4.727.282 0 .327.116.327.844 0 .513.064.803.165.741.097-.06.12.013.057.179-.076.196-.037.258.125.204.308-.103.609.214.68.714.041.294.176.416.505.453.346.04.46.154.5.5.04.35.153.46.51.501.262.031.458.155.458.292 0 .131.075.239.167.239.091 0 .148.094.125.208-.041.206.102.24 1.17.274.468.015.561.09.646.518.098.488.124.5 1.087.5.852 0 1.038.058 1.355.426.462.536.525.546 3.492.561 2.049.011 2.458.054 2.458.259 0 .581.833.736 4.444.824.291.008.526.051.522.097-.03.43.09.662.392.757.554.176 1.568 1.243 1.181 1.243a.704.704 0 0 0-.706.7c0 .295-.347.38-1.264.31-.421-.033-.809.391-.676.738.082.214-.151.252-1.569.252-1.597 0-1.672-.017-1.815-.394-.167-.439-.726-.606-2.03-.606-.758 0-.812-.029-.812-.421 0-.334-.103-.442-.5-.521-.512-.102-.591-.313-.507-1.35.017-.206-.054-.375-.158-.375-.104 0-.142-.075-.085-.167.068-.11-1.945-.166-5.912-.166h-6.014l.046 2.375c.042 2.137.075 2.372.336 2.352.16-.013.249.044.199.125-.051.081.025.148.168.148.194 0 .265.19.281.75.032 1.158.034 1.163.521 1.219.356.041.458.141.458.448 0 .666.307 1.247.747 1.415.254.097.42.29.42.491 0 .418.473.677 1.239.677.584 0 .688.131.611.772-.013.104.223.236.524.292.345.065.607.241.711.477.091.207.315.383.498.393.183.01.453.07.6.133.147.064.334.103.417.088.783-.147 1.4.033 1.4.409 0 .532.311.597 2.883.6 2.088.002 2.14.011 2.505.435.359.417.44.433 2.284.445 2.621.018 3.043-.048 3.242-.503.154-.351 2.64-.566 4.454-.384.325.032.903-.24 1.356-.637.17-.149.77-.345 1.334-.437.899-.146 1.024-.211 1.013-.532-.01-.295.107-.385.606-.47.604-.102 1.323-.602 1.323-.921 0-.088.144-.16.319-.16.56 0 .847-.192.847-.565 0-.248.155-.421.492-.548.43-.162.506-.293.604-1.027.099-.751.159-.848.55-.893.419-.048.44-.1.487-1.176.036-.822.111-1.125.279-1.125.53 0 .735-.939.736-3.38.002-2.789-.053-3.089-.583-3.223-.366-.091-.556-.955-.422-1.925.008-.062-.208-.351-.48-.643-.273-.292-.496-.701-.496-.909 0-.457-.363-.792-.779-.721-.231.039-.292-.039-.252-.324.028-.206-.032-.375-.135-.375-.103 0-.133-.087-.066-.195.079-.128.031-.161-.141-.094-.337.129-.798-.21-.861-.632a.424.424 0 0 0-.366-.353 39.565 39.565 0 0 0-.65-.042c-.183-.01-.483-.243-.667-.517-.271-.406-.449-.499-.958-.5-.606 0-1.292-.443-1.292-.833 0-.099-.604-.167-1.479-.167h-1.479l-.1-.5-.1-.5H354.708l-.1-.5c-.103-.519-.303-.567-2.316-.558-.161.001-.292-.099-.292-.22 0-.122-.075-.222-.167-.222-.091 0-.166-.375-.166-.833 0-.811.013-.834.489-.834.828 0 1.394-.292 1.295-.669-.082-.314.001-.331 1.648-.331 1.726 0 1.734.002 1.734.406 0 .373.373.652.775.58.808-.145 1.225.03 1.225.514 0 .443.057.5.492.5.482 0 .493.02.542.959l.05.958h12l.047-1.852.046-1.852-.505-.54c-.43-.461-.505-.672-.505-1.42 0-.888-.24-1.313-.687-1.217-.128.028-.244-.127-.275-.369-.101-.79-.401-1.305-.874-1.501-.302-.125-.442-.283-.384-.433.129-.337-.253-.733-.706-.733-.228 0-.425-.125-.483-.308-.113-.356-.762-.692-1.338-.692-.31 0-.409-.101-.45-.458-.049-.427-.125-.469-1.095-.607-.825-.117-1.041-.209-1.041-.44 0-.432-.383-.525-2.5-.608-1.769-.07-1.945-.107-2.283-.48-.201-.222-.539-.412-.75-.422-2.291-.105-5.67-.096-6.13.015m-215.697.948c-.151.039-.316.235-.366.437-.132.53-.136 9.931-.005 10.585.213 1.069 1.239 1.274 2.149.431l.432-.401h13.092l.363.388c.201.213.314.438.252.5s.117.112.397.112c.543 0 .714.508.576 1.709l-.052.458-5.614.02c-3.088.011-5.714.006-5.835-.01-.324-.044-.696.318-.696.677 0 .28-.14.313-1.313.313-1.313 0-1.873.23-1.607.661.128.207-.063.278-1.121.42-.657.088-.808.175-.893.512-.074.295-.216.407-.515.407-.306 0-.462.13-.602.5-.104.275-.307.5-.452.5-.372 0-.664.336-.664.764 0 .223-.128.397-.331.45-.445.117-.669.771-.669 1.952 0 .944-.016.98-.458 1.031l-.458.053-.046 3.229c-.047 3.355.012 3.688.649 3.688.275 0 .313.135.313 1.093 0 .601.062 1.055.138 1.008.075-.047.131.08.125.282-.009.25.079.359.277.344.16-.013.253.037.208.111-.046.073.002.162.106.196.104.035.198.247.209.473.016.316.125.421.479.462.252.029.467.142.478.25l.041.447c.014.155.231.27.567.303.3.029.502.123.448.21-.199.321.111.821.51.821.267 0 .469.149.619.458.148.304.348.454.593.445.203-.007.369.049.369.125s.262.138.583.138c.416 0 .584.075.584.259 0 .632.928.741 6.316.741 5.429 0 5.684-.034 5.684-.762 0-.229.348-.306 1.109-.246.197.015.409-.053.47-.151.061-.099.18-.136.266-.084.085.053.155-.09.155-.317 0-.324.108-.437.5-.523.275-.06.5-.182.5-.271 0-.089.206-.34.458-.558l.458-.396.123.863c.067.474.136.943.153 1.043.047.281.084.283 5.641.301l5.25.018V36.667c0-8.935-.057-13.589-.167-13.598-.61-.053-.75-.284-.75-1.241 0-.848-.06-1.03-.486-1.455-.268-.268-.511-.705-.542-.972-.032-.281-.16-.494-.305-.507l-.447-.041c-.109-.011-.221-.226-.25-.478-.041-.357-.152-.47-.501-.51-.347-.04-.46-.154-.5-.5-.038-.328-.16-.464-.454-.505-.466-.066-.765-.337-.765-.693 0-.183-.225-.264-.833-.299-.848-.05-1.305-.363-1.144-.783.085-.222-2.09-.551-2.396-.362-.225.139-.624-.18-.625-.5-.001-.198-.189-.332-.585-.417-.599-.128-18.696-.152-19.193-.025M153.5 35.573c0 .316-.081.624-.181.686-.1.062-.165.494-.146.968.1 2.462.03 2.913-.465 2.97-.36.042-.469.151-.511.511-.049.428-.14.481-.782.455-.278-.011-1.082.552-1.082.758 0 .428-2.268.346-2.381-.086-.098-.375-.739-.668-1.463-.668-.407 0-.489-.068-.489-.406 0-.647-.309-1.286-.669-1.38-.266-.07-.331-.228-.331-.812 0-.579.051-.706.252-.628.455.174.748-.268.748-1.128V36l.792-.012c1.248-.02 1.602-.123 1.949-.571.317-.408.372-.417 2.542-.417h2.217v.573"/><path fill="#040404" d="M0 26.417v23.916h6.07c3.338 0 6.188-.045 6.333-.101.237-.091.266-1.473.283-13.791.011-7.53.068-13.466.126-13.191.073.342.22.516.465.551.306.044.376.199.474 1.042.111.952.134.99.592.99h.477l.049 1.452c.046 1.393.064 1.455.464 1.548.382.089.421.184.467 1.132.049 1.021.056 1.035.535 1.035h.485l.049 1.458c.048 1.454.049 1.459.506 1.511.443.051.458.087.458 1.042 0 .985.002.989.494.989h.493l.049 1.458c.047 1.448.051 1.459.498 1.511.43.049.453.1.5 1.083l.05 1.031 6.541.044 6.542.044v-.586c0-.509.053-.585.407-.585.538 0 .562-.058.694-1.641.106-1.264.14-1.359.488-1.359.446 0 .578-.282.578-1.237 0-.584.069-.741.393-.889.436-.198.607-.775.607-2.05 0-.751.029-.805.458-.855.438-.05.46-.097.507-1.077.041-.85.105-1.038.373-1.108.439-.115.662-.775.662-1.962 0-.987 0-.989.5-.989h.5v-1.004c0-.902.04-1.019.393-1.153.438-.167.607-.727.607-2.011 0-.754.025-.797.499-.867l.499-.073.042 14.262.043 14.263h13.167l.042-23.649c.031-17.427-.008-23.709-.147-23.876-.156-.188-1.738-.22-9.125-.185l-8.937.043-.051.526c-.038.389-.152.552-.438.623-.465.117-.589.513-.592 1.893l-.002 1.042h-1V7.88c0 1.202-.274 1.787-.836 1.787-.09 0-.165.356-.167.791-.003.904-.104 1.119-.6 1.274-.367.114-.564.901-.564 2.255 0 .521-.071.633-.5.795-.472.178-.5.241-.5 1.102 0 .821-.04.923-.394 1.012-.434.109-.601.698-.604 2.135-.002.727-.033.784-.46.833-.439.05-.461.097-.508 1.086-.039.822-.111 1.052-.35 1.128-.436.138-.684.809-.684 1.852 0 .725-.06.932-.292 1.004-.16.05-.423.16-.583.246-.181.097-.292.097-.292 0 0-.086-.168-.181-.375-.21-.329-.047-.385-.175-.462-1.053-.094-1.071-.332-1.652-.741-1.809-.144-.055-.256-.3-.257-.561-.005-1.264-.185-1.714-.686-1.714h-.479v-1.3c0-1.342-.147-1.7-.7-1.7-.255 0-.3-.147-.3-.986 0-.961-.013-.99-.5-1.097l-.5-.11v-1.329c0-1.326 0-1.329-.5-1.503-.479-.167-.5-.214-.5-1.158 0-.979-.002-.983-.493-.983h-.494l-.048-1.459c-.048-1.453-.05-1.458-.506-1.511-.442-.051-.459-.088-.459-1.024 0-.849-.063-1.038-.5-1.506-.308-.33-.5-.714-.5-1 0-.681.2-.667-9.18-.667H0v23.917m57.708-12.64c-.368.149-.289 4.869.084 5.011.572.216.708.518.71 1.575.003 1.711.149 2.293.604 2.407.369.093.394.176.394 1.318 0 1.487.089 1.745.601 1.745.384 0 .399.046.401 1.209.003 1.512.093 1.847.548 2.048.415.183.592.911.607 2.502.01 1.043.194 1.408.71 1.408.266 0 .3.167.3 1.5V36h1v1.513c0 1.459.018 1.531.5 2.013.474.474.5.57.5 1.87 0 1.41.141 1.771.693 1.771.254 0 .3.195.342 1.458.048 1.453.05 1.459.506 1.511l.459.053v1.395c0 2.636.174 2.749 4.241 2.749h2.925v.725c0 .92-.363 1.275-1.304 1.275-.662 0-.696.025-.696.5v.5H61.712l-.106.774c-.136.991-.135 8.444.001 9.268l.103.625h7.562c6.61 0 7.561-.031 7.561-.25 0-.199.242-.25 1.178-.25 1.316 0 1.822-.187 1.822-.673 0-.252.114-.327.5-.327.445 0 .5-.056.5-.5 0-.445.055-.5.504-.5.386 0 .542-.099.664-.42a1.13 1.13 0 0 1 .567-.574c.272-.104.426-.309.462-.616.038-.332.169-.487.47-.557.376-.087.421-.188.467-1.048.049-.931.06-.952.541-.952.49 0 .492-.005.492-.988 0-.852.048-1.004.343-1.098.503-.16.657-.748.657-2.508 0-1.547.006-1.572.399-1.572.537 0 .601-.241.601-2.264 0-1.615.023-1.736.327-1.736.521 0 .673-.527.673-2.327 0-1.614.016-1.688.394-1.831.542-.206.606-.457.606-2.372 0-1.492.033-1.677.313-1.75.502-.131.687-.796.687-2.472 0-1.393.037-1.59.33-1.746.551-.295.716-.831.82-2.664.091-1.597.133-1.769.465-1.915.48-.211.547-.519.549-2.537l.003-1.698.458-.052.458-.053.047-1.948.047-1.948.453-.052.453-.052.047-1.944.047-1.944.495-.172.495-.173v-1.752c0-2.312.602-2.128-6.763-2.066-7.093.059-6.398-.202-6.401 2.407-.003 1.71-.029 1.862-.334 1.942-.511.133-.669.808-.669 2.859v1.885l-.476.095c-.547.109-.691.699-.691 2.838 0 1.087-.036 1.208-.458 1.545-.452.36-.459.397-.517 2.547-.051 1.92-.092 2.183-.341 2.183-.576 0-.684.354-.684 2.244 0 1.743-.02 1.853-.369 2.008-.203.091-.421.352-.484.581-.078.286-.119.114-.13-.55-.016-.919-.042-.976-.517-1.141l-.5-.175v-1.389c0-1.569-.187-2.238-.662-2.362-.288-.075-.331-.26-.373-1.609l-.048-1.524-.458-.052-.459-.053-.019-1.447c-.027-1.96-.142-2.435-.607-2.501-.347-.049-.374-.138-.376-1.25-.003-1.591-.11-1.947-.585-1.947-.409 0-.381.146-.622-3.333-.035-.5-.106-.591-.499-.636l-.458-.053v-2.934l-.625-.103c-.739-.122-12.03-.119-12.334.003"/></g></svg>
